ffmpeg version 5.1.3-1 Copyright (c) 2000-2022 the FFmpeg developers
  built with gcc 12 (Debian 12.2.0-14)
  configuration: --prefix=/usr --extra-version=1 --toolchain=hardened --libdir=/usr/lib/x86_64-linux-gnu --incdir=/usr/include/x86_64-linux-gnu --arch=amd64 --enable-gpl --disable-stripping --enable-gnutls --enable-ladspa --enable-libaom --enable-libass --enable-libbluray --enable-libbs2b --enable-libcaca --enable-libcdio --enable-libcodec2 --enable-libdav1d --enable-libflite --enable-libfontconfig --enable-libfreetype --enable-libfribidi --enable-libglslang --enable-libgme --enable-libgsm --enable-libjack --enable-libmp3lame --enable-libmysofa --enable-libopenjpeg --enable-libopenmpt --enable-libopus --enable-libpulse --enable-librabbitmq --enable-librist --enable-librubberband --enable-libshine --enable-libsnappy --enable-libsoxr --enable-libspeex --enable-libsrt --enable-libssh --enable-libsvtav1 --enable-libtheora --enable-libtwolame --enable-libvidstab --enable-libvorbis --enable-libvpx --enable-libwebp --enable-libx265 --enable-libxml2 --enable-libxvid --enable-libzimg --enable-libzmq --enable-libzvbi --enable-lv2 --enable-omx --enable-openal --enable-opencl --enable-opengl --enable-sdl2 --disable-sndio --enable-libjxl --enable-pocketsphinx --enable-librsvg --enable-libmfx --enable-libdc1394 --enable-libdrm --enable-libiec61883 --enable-chromaprint --enable-frei0r --enable-libx264 --enable-libplacebo --enable-librav1e --enable-shared
  libavutil      57. 28.100 / 57. 28.100
  libavcodec     59. 37.100 / 59. 37.100
  libavformat    59. 27.100 / 59. 27.100
  libavdevice    59.  7.100 / 59.  7.100
  libavfilter     8. 44.100 /  8. 44.100
  libswscale      6.  7.100 /  6.  7.100
  libswresample   4.  7.100 /  4.  7.100
  libpostproc    56.  6.100 / 56.  6.100
Input #0, mov,mp4,m4a,3gp,3g2,mj2, from 'teste.mp4':
  Metadata:
    major_brand     : mp42
    minor_version   : 0
    compatible_brands: isommp42
    creation_time   : 2022-03-16T17:39:37.000000Z
  Duration: 00:05:13.79, start: 0.000000, bitrate: 466 kb/s
  Stream #0:0[0x1](und): Video: h264 (Main) (avc1 / 0x31637661), yuv420p(tv, bt709, progressive), 640x360 [SAR 1:1 DAR 16:9], 334 kb/s, 29.97 fps, 29.97 tbr, 11988 tbn (default)
    Metadata:
      creation_time   : 2022-03-16T17:39:37.000000Z
      handler_name    : ISO Media file produced by Google Inc. Created on: 03/16/2022.
      vendor_id       : [0][0][0][0]
  Stream #0:1[0x2](und): Audio: aac (LC) (mp4a / 0x6134706D), 44100 Hz, stereo, fltp, 128 kb/s (default)
    Metadata:
      creation_time   : 2022-03-16T17:39:37.000000Z
      handler_name    : ISO Media file produced by Google Inc. Created on: 03/16/2022.
      vendor_id       : [0][0][0][0]
Codec AVOption preset (Encoding preset) specified for output file #0 (pipe:1) has not been used for any stream. The most likely reason is either wrong type (e.g. a video option with no video streams) or that it is a private option of some encoder which was not actually used for any stream.
Stream mapping:
  Stream #0:0 -> #0:0 (h264 (native) -> mpeg4 (native))
  Stream #0:1 -> #0:1 (aac (native) -> mp3 (libmp3lame))
Press [q] to stop, [?] for help
[mpeg4 @ 0x56009311c100] Application has requested 24 threads. Using a thread count greater than 16 is not recommended.
[mpeg4 @ 0x56009311c100] too many threads/slices (24), reducing to 23
Output #0, avi, to 'pipe:1':
  Metadata:
    major_brand     : mp42
    minor_version   : 0
    compatible_brands: isommp42
    ISFT            : Lavf59.27.100
  Stream #0:0(und): Video: mpeg4 (FMP4 / 0x34504D46), yuv420p(tv, bt709, progressive), 640x360 [SAR 1:1 DAR 16:9], q=2-31, 200 kb/s, 29.97 fps, 29.97 tbn (default)
    Metadata:
      creation_time   : 2022-03-16T17:39:37.000000Z
      handler_name    : ISO Media file produced by Google Inc. Created on: 03/16/2022.
      vendor_id       : [0][0][0][0]
      encoder         : Lavc59.37.100 mpeg4
    Side data:
      cpb: bitrate max/min/avg: 0/0/200000 buffer size: 0 vbv_delay: N/A
  Stream #0:1(und): Audio: mp3 (U[0][0][0] / 0x0055), 44100 Hz, stereo, fltp (default)
    Metadata:
      creation_time   : 2022-03-16T17:39:37.000000Z
      handler_name    : ISO Media file produced by Google Inc. Created on: 03/16/2022.
      vendor_id       : [0][0][0][0]
      encoder         : Lavc59.37.100 libmp3lame
frame=    5 fps=0.0 q=2.0 size=       1kB time=00:00:00.16 bitrate=  70.6kbits/s speed=3.72x    frame=  116 fps=0.0 q=12.1 size=     271kB time=00:00:03.87 bitrate= 573.0kbits/s speed= 7.1x    frame=  243 fps=232 q=17.3 size=     495kB time=00:00:08.10 bitrate= 500.3kbits/s speed=7.75x    frame=  355 fps=229 q=18.7 size=     675kB time=00:00:11.84 bitrate= 466.7kbits/s speed=7.65x    frame=  460 fps=224 q=31.0 size=     916kB time=00:00:15.34 bitrate= 488.9kbits/s speed=7.48x    frame=  555 fps=217 q=31.0 size=    1105kB time=00:00:18.54 bitrate= 487.9kbits/s speed=7.25x    frame=  648 fps=212 q=31.0 size=    1289kB time=00:00:21.62 bitrate= 488.4kbits/s speed=7.06x    frame=  740 fps=208 q=31.0 size=    1488kB time=00:00:24.69 bitrate= 493.7kbits/s speed=6.93x    frame=  827 fps=203 q=31.0 size=    1673kB time=00:00:27.59 bitrate= 496.7kbits/s speed=6.78x    frame=  919 fps=201 q=31.0 size=    1833kB time=00:00:30.66 bitrate= 489.7kbits/s speed=6.71x    frame= 1027 fps=202 q=31.0 size=    2013kB time=00:00:34.35 bitrate= 480.1kbits/s speed=6.77x    frame= 1123 fps=201 q=31.0 size=    2196kB time=00:00:37.59 bitrate= 478.5kbits/s speed=6.74x    frame= 1217 fps=200 q=31.0 size=    2388kB time=00:00:40.60 bitrate= 481.7kbits/s speed=6.68x    frame= 1318 fps=200 q=31.0 size=    2582kB time=00:00:43.97 bitrate= 481.0kbits/s speed=6.68x    frame= 1407 fps=199 q=31.0 size=    2702kB time=00:00:46.94 bitrate= 471.5kbits/s speed=6.63x    frame= 1508 fps=199 q=31.0 size=    2840kB time=00:00:50.31 bitrate= 462.4kbits/s speed=6.63x    frame= 1614 fps=200 q=31.0 size=    2998kB time=00:00:53.85 bitrate= 456.0kbits/s speed=6.66x    frame= 1706 fps=199 q=31.0 size=    3118kB time=00:00:56.92 bitrate= 448.8kbits/s speed=6.63x    frame= 1804 fps=198 q=31.0 size=    3300kB time=00:01:00.19 bitrate= 449.2kbits/s speed=6.62x    frame= 1906 fps=199 q=31.0 size=    3486kB time=00:01:03.60 bitrate= 449.0kbits/s speed=6.63x    frame= 2021 fps=200 q=31.0 size=    3642kB time=00:01:07.43 bitrate= 442.5kbits/s speed=6.68x    frame= 2124 fps=200 q=31.0 size=    3807kB time=00:01:10.87 bitrate= 440.1kbits/s speed=6.68x    frame= 2217 fps=200 q=24.8 size=    3971kB time=00:01:13.97 bitrate= 439.8kbits/s speed=6.66x    frame= 2322 fps=200 q=31.0 size=    4176kB time=00:01:17.53 bitrate= 441.2kbits/s speed=6.68x    frame= 2432 fps=201 q=31.0 size=    4312kB time=00:01:21.14 bitrate= 435.3kbits/s speed= 6.7x    frame= 2544 fps=202 q=24.8 size=    4478kB time=00:01:24.95 bitrate= 431.9kbits/s speed=6.74x    frame= 2639 fps=201 q=31.0 size=    4651kB time=00:01:28.05 bitrate= 432.7kbits/s speed=6.71x    frame= 2737 fps=201 q=31.0 size=    4850kB time=00:01:31.32 bitrate= 435.1kbits/s speed=6.71x    frame= 2827 fps=200 q=31.0 size=    5039kB time=00:01:34.32 bitrate= 437.6kbits/s speed=6.68x    frame= 2929 fps=200 q=31.0 size=    5276kB time=00:01:37.73 bitrate= 442.2kbits/s speed=6.68x    frame= 3032 fps=200 q=31.0 size=    5491kB time=00:01:41.22 bitrate= 444.4kbits/s speed=6.69x    frame= 3129 fps=200 q=31.0 size=    5664kB time=00:01:44.46 bitrate= 444.1kbits/s speed=6.68x    frame= 3241 fps=201 q=31.0 size=    5869kB time=00:01:48.17 bitrate= 444.4kbits/s speed=6.71x    frame= 3529 fps=212 q=31.0 size=    6411kB time=00:01:57.78 bitrate= 445.9kbits/s speed=7.08x    frame= 3816 fps=223 q=31.0 size=    6839kB time=00:02:07.32 bitrate= 440.0kbits/s speed=7.43x    frame= 4114 fps=233 q=31.0 size=    7306kB time=00:02:17.27 bitrate= 436.0kbits/s speed=7.79x    frame= 4384 fps=242 q=31.0 size=    7765kB time=00:02:26.27 bitrate= 434.8kbits/s speed=8.07x    frame= 4612 fps=248 q=31.0 size=    8235kB time=00:02:33.88 bitrate= 438.4kbits/s speed=8.26x    frame= 4881 fps=255 q=24.8 size=    8717kB time=00:02:42.86 bitrate= 438.5kbits/s speed=8.51x    frame= 5069 fps=258 q=31.0 size=    9219kB time=00:02:49.13 bitrate= 446.5kbits/s speed=8.62x    frame= 5309 fps=264 q=31.0 size=    9560kB time=00:02:57.14 bitrate= 442.1kbits/s speed= 8.8x    frame= 5533 fps=268 q=24.8 size=    9906kB time=00:03:04.71 bitrate= 439.3kbits/s speed=8.95x    frame= 5757 fps=272 q=31.0 size=   10466kB time=00:03:12.15 bitrate= 446.2kbits/s speed=9.09x    frame= 5979 fps=276 q=31.0 size=   10935kB time=00:03:19.49 bitrate= 449.0kbits/s speed=9.22x    frame= 6202 fps=280 q=31.0 size=   11326kB time=00:03:26.94 bitrate= 448.4kbits/s speed=9.35x    frame= 6410 fps=283 q=31.0 size=   11738kB time=00:03:33.88 bitrate= 449.6kbits/s speed=9.45x    frame= 6597 fps=285 q=31.0 size=   12194kB time=00:03:40.12 bitrate= 453.8kbits/s speed=9.51x    frame= 6797 fps=288 q=31.0 size=   12527kB time=00:03:46.79 bitrate= 452.5kbits/s speed=9.59x    frame= 7035 fps=291 q=31.0 size=   12889kB time=00:03:54.73 bitrate= 449.8kbits/s speed=9.72x    frame= 7240 fps=294 q=31.0 size=   13233kB time=00:04:01.57 bitrate= 448.7kbits/s speed= 9.8x    frame= 7439 fps=296 q=31.0 size=   13551kB time=00:04:08.21 bitrate= 447.2kbits/s speed=9.87x    frame= 7598 fps=296 q=31.0 size=   13883kB time=00:04:13.54 bitrate= 448.5kbits/s speed=9.89x    frame= 7764 fps=297 q=24.8 size=   14240kB time=00:04:19.10 bitrate= 450.2kbits/s speed=9.91x    frame= 7920 fps=297 q=31.0 size=   14519kB time=00:04:24.26 bitrate= 450.1kbits/s speed=9.92x    frame= 8126 fps=299 q=31.0 size=   14830kB time=00:04:31.17 bitrate= 448.0kbits/s speed=9.99x    frame= 8309 fps=300 q=24.8 size=   15070kB time=00:04:37.24 bitrate= 445.3kbits/s speed=  10x    frame= 8416 fps=299 q=31.0 size=   15224kB time=00:04:40.81 bitrate= 444.1kbits/s speed=9.97x    frame= 8530 fps=298 q=31.0 size=   15463kB time=00:04:44.65 bitrate= 445.0kbits/s speed=9.93x    frame= 8651 fps=297 q=31.0 size=   15702kB time=00:04:48.65 bitrate= 445.6kbits/s speed= 9.9x    frame= 8752 fps=295 q=31.0 size=   15925kB time=00:04:52.07 bitrate= 446.6kbits/s speed=9.85x    frame= 8863 fps=294 q=31.0 size=   16146kB time=00:04:55.81 bitrate= 447.1kbits/s speed=9.81x    frame= 8950 fps=292 q=31.0 size=   16390kB time=00:04:58.63 bitrate= 449.6kbits/s speed=9.74x    frame= 9057 fps=291 q=31.0 size=   16653kB time=00:05:02.20 bitrate= 451.4kbits/s speed= 9.7x    frame= 9157 fps=289 q=31.0 size=   16934kB time=00:05:05.55 bitrate= 454.0kbits/s speed=9.65x    frame= 9255 fps=288 q=31.0 size=   17165kB time=00:05:08.80 bitrate= 455.3kbits/s speed= 9.6x    frame= 9362 fps=287 q=31.0 size=   17411kB time=00:05:12.37 bitrate= 456.6kbits/s speed=9.56x    frame= 9404 fps=286 q=31.0 Lsize=   17515kB time=00:05:13.80 bitrate= 457.2kbits/s speed=9.54x    
video:12438kB audio:4904kB subtitle:0kB other streams:0kB global headers:0kB muxing overhead: 1.002837%
